<svg width="25" height="25" viewBox="0 0 25 25" fill="none" xmlns="http://www.w3.org/2000/svg">
<path fill-rule="evenodd" clip-rule="evenodd" d="M9.83208 5.19171C8.95531 4.72483 7.94386 4.57614 6.96981 4.77095C5.99577 4.96576 5.11931 5.49203 4.48955 6.26021C3.85978 7.0284 3.51562 7.99105 3.51562 8.98438C3.51562 11.9451 5.72028 14.771 8.13982 16.9486C9.32595 18.0161 10.5157 18.885 11.4105 19.4875C11.8571 19.7882 12.2284 20.0213 12.4865 20.1784C12.4911 20.1812 12.4955 20.1839 12.5 20.1866C12.5045 20.1839 12.5089 20.1812 12.5135 20.1784C12.7716 20.0213 13.1429 19.7882 13.5895 19.4875C14.4843 18.885 15.674 18.0161 16.8602 16.9486C19.2797 14.771 21.4844 11.9451 21.4844 8.98438C21.4844 7.99105 21.1402 7.0284 20.5105 6.26021C19.8807 5.49203 19.0042 4.96576 18.0302 4.77095C17.0561 4.57614 16.0447 4.72483 15.1679 5.19171C14.2911 5.65858 13.6032 6.41482 13.2212 7.33174L12.5 7.03126L11.7788 7.33174C11.3968 6.41482 10.7089 5.65858 9.83208 5.19171ZM12.5 5.46875C11.9881 4.7863 11.3298 4.21901 10.5665 3.81255C9.37088 3.1759 7.99162 2.97315 6.66338 3.23879C5.33514 3.50444 4.13996 4.22208 3.2812 5.26961C2.42243 6.31713 1.95312 7.62984 1.95312 8.98438C1.95312 12.6643 4.63128 15.8931 7.09456 18.11C8.34983 19.2397 9.60153 20.1531 10.5378 20.7835C11.0067 21.0993 11.3983 21.3453 11.6742 21.5132C11.8122 21.5972 11.9214 21.6617 11.997 21.7057C12.0348 21.7278 12.0642 21.7447 12.0846 21.7563L12.1084 21.7698L12.1151 21.7736L12.1171 21.7748L12.1178 21.7751C12.1181 21.7753 12.1183 21.7754 12.5 21.0938L12.1183 21.7754C12.3554 21.9082 12.6446 21.9082 12.8817 21.7754L12.5 21.0938C12.8817 21.7754 12.8819 21.7753 12.8822 21.7751L12.8829 21.7748L12.8849 21.7736L12.8916 21.7698L12.9154 21.7563C12.9358 21.7447 12.9652 21.7278 13.003 21.7057C13.0786 21.6617 13.1878 21.5972 13.3258 21.5132C13.6017 21.3453 13.9933 21.0993 14.4622 20.7835C15.3985 20.1531 16.6502 19.2397 17.9054 18.11C20.3687 15.8931 23.0469 12.6643 23.0469 8.98438C23.0469 7.62984 22.5776 6.31713 21.7188 5.26961C20.86 4.22208 19.6649 3.50444 18.3366 3.23879C17.0084 2.97315 15.6291 3.1759 14.4335 3.81255C13.6702 4.21901 13.0119 4.7863 12.5 5.46875Z" fill="#878B93"/>
</svg>
