<svg width="29" height="29" viewBox="0 0 29 29" fill="none" xmlns="http://www.w3.org/2000/svg">
<path d="M14.5 15.8594C15.2508 15.8594 15.8594 15.2508 15.8594 14.5C15.8594 13.7492 15.2508 13.1406 14.5 13.1406C13.7492 13.1406 13.1406 13.7492 13.1406 14.5C13.1406 15.2508 13.7492 15.8594 14.5 15.8594Z" fill="#545454"/>
<path d="M14.5 8.60938C15.2508 8.60938 15.8594 8.00076 15.8594 7.25C15.8594 6.49924 15.2508 5.89062 14.5 5.89062C13.7492 5.89062 13.1406 6.49924 13.1406 7.25C13.1406 8.00076 13.7492 8.60938 14.5 8.60938Z" fill="#545454"/>
<path d="M14.5 23.1094C15.2508 23.1094 15.8594 22.5008 15.8594 21.75C15.8594 20.9992 15.2508 20.3906 14.5 20.3906C13.7492 20.3906 13.1406 20.9992 13.1406 21.75C13.1406 22.5008 13.7492 23.1094 14.5 23.1094Z" fill="#545454"/>
</svg>
