<svg width="35" height="35" viewBox="0 0 35 35" fill="none" xmlns="http://www.w3.org/2000/svg">
<path d="M5.25964 26.5595C5.34929 26.582 5.44453 26.5696 5.52472 26.5249C5.60491 26.4803 5.66359 26.407 5.68804 26.3209C6.40904 23.7301 9.33924 23.0587 11.0906 22.6569C11.5295 22.5564 11.876 22.4769 12.1014 22.3831C14.0964 21.5492 14.7467 20.2076 14.9413 19.2288C14.9529 19.1705 14.9483 19.1104 14.928 19.0544C14.9078 18.9984 14.8725 18.9486 14.8258 18.9099C13.787 18.0463 12.9106 16.7499 12.3576 15.2587C12.342 15.2159 12.3175 15.1766 12.2855 15.1434C11.554 14.3775 11.134 13.5679 11.134 12.9227C11.134 12.5458 11.2817 12.293 11.6142 12.1022C11.664 12.0736 11.7057 12.0334 11.7354 11.9854C11.7651 11.9374 11.7819 11.883 11.7843 11.8272C11.939 8.39303 14.4786 5.68966 17.5936 5.67213L17.6685 5.67685C20.7989 5.71865 23.3224 8.48 23.4127 11.9627C23.414 12.0103 23.4258 12.0571 23.4473 12.1C23.4687 12.1429 23.4994 12.1809 23.5373 12.2115C23.7564 12.3901 23.8586 12.6166 23.8586 12.924C23.8586 13.464 23.5597 14.1281 23.0179 14.7928C22.9921 14.8248 22.9722 14.8608 22.9591 14.8993C22.3991 16.609 21.3939 18.1184 20.2025 19.042C20.1532 19.0804 20.1155 19.1309 20.0936 19.1883C20.0717 19.2456 20.0663 19.3076 20.0779 19.3676C20.2725 20.3458 20.9228 21.6867 22.9178 22.522C23.1537 22.6204 23.5198 22.6973 23.9839 22.7937C25.7178 23.1551 28.6193 23.7611 29.3312 26.3209C29.3432 26.3637 29.3638 26.4037 29.3918 26.4388C29.4198 26.4739 29.4548 26.5034 29.4946 26.5255C29.5345 26.5476 29.5784 26.5619 29.624 26.5676C29.6696 26.5734 29.7159 26.5704 29.7603 26.5589C29.8047 26.5474 29.8464 26.5275 29.8828 26.5005C29.9192 26.4736 29.9498 26.4399 29.9728 26.4015C29.9957 26.3632 30.0106 26.3208 30.0165 26.2769C30.0225 26.233 30.0194 26.1884 30.0074 26.1456C29.1849 23.1881 25.8977 22.5025 24.1323 22.1344C23.7228 22.0488 23.3693 21.9753 23.1971 21.9025C21.8951 21.3578 21.0929 20.5279 20.8094 19.4317C22.0183 18.4319 23.0298 16.8894 23.608 15.1595C24.2219 14.391 24.5593 13.5995 24.5593 12.9234C24.5593 12.4724 24.4081 12.0962 24.1085 11.8022C23.9419 8.02427 21.1426 5.04921 17.6685 5.00135L17.5642 5C14.1531 5.01753 11.3419 7.91438 11.0962 11.627C10.658 11.9371 10.4354 12.3719 10.4354 12.924C10.4354 13.7216 10.9037 14.6755 11.7234 15.5506C12.2897 17.0492 13.1675 18.3658 14.2126 19.2874C13.9305 20.3876 13.1276 21.2202 11.8228 21.7656C11.6541 21.8364 11.3181 21.9139 10.9289 22.0029C9.15024 22.4101 5.84064 23.1685 5.01184 26.147C4.98791 26.2333 5.00056 26.3253 5.04703 26.4027C5.0935 26.48 5.16998 26.5365 5.25964 26.5595Z" fill="#CCCCCC"/>
<circle cx="17.5" cy="17.5" r="17" stroke="#CCCCCC"/>
</svg>
